<svg viewBox="0 0 100 100" fill="none" xmlns="http://www.w3.org/2000/svg">
  <rect x="0" y="0" width="100" height="100" rx="15" fill="hsl(var(--primary))"/>
  <rect x="44" y="20" width="12" height="60" fill="white"/>
  <rect x="20" y="44" width="60" height="12" fill="white"/>
  <g>
    <rect x="19" y="22.5" width="10" height="3" fill="white"/>
    <rect x="22.5" y="19" width="3" height="10" fill="white"/>
  </g>
  <g>
    <circle cx="78" cy="19.5" r="2.5" fill="white"/>
    <rect x="75" y="22.5" width="6" height="3.5" rx="1" fill="white"/>
    <path d="M79.5 22.5 L79.5 24 L81 25.5" stroke="white" strokeWidth="1" fill="none" strokeLinecap="round"/>
  </g>
  <g>
    <rect x="13" y="73" width="9" height="11" rx="1.5" fill="white"/>
    <rect x="14" y="71" width="7" height="2" rx="0.5" fill="white"/>
    <rect x="25" y="76" width="8" height="4" rx="2" fill="white"/>
    <line x1="29" y1="76" x2="29" y2="80" stroke="hsl(var(--primary))" strokeWidth="1"/>
  </g>
  <g>
    <rect x="70" y="71" width="16" height="15" rx="2" fill="white"/>
    <circle cx="73" cy="70.5" r="1.2" fill="hsl(var(--primary))"/>
    <circle cx="78" cy="70.5" r="1.2" fill="hsl(var(--primary))"/>
    <circle cx="83" cy="70.5" r="1.2" fill="hsl(var(--primary))"/>
    <path d="M73 79 l3 3 l7-7" stroke="hsl(var(--primary))" strokeWidth="2.5" fill="none" strokeLinecap="round" strokeLinejoin="round"/>
  </g>
</svg>
